<?xml version="1.0" encoding="utf-8"?>
<?xml-stylesheet type="text/xsl" href="rss1.xsl"?>
<rss version="2.0" xmlns:atom="http://www.w3.org/2005/Atom" xmlns:content="http://purl.org/rss/1.0/modules/content/" xmlns:dc="http://purl.org/dc/elements/1.1/" xmlns:media="http://search.yahoo.com/mrss/">
<channel>
 <title>Getty</title>
 <link>http://www.gettyimg.com/</link>
 <atom:link href="http://www.gettyimg.com/" rel="self" type="application/rss+xml" />

 
                <item>
                <title><![CDATA[【Requests】Filled - [REQ AUD] Mariah Carey - Rainbow (Fixed 25th Annivesary Expanded)]]></title>
                <link><![CDATA[https://sharemania.us/threads/req-aud-mariah-carey-rainbow-fixed-25th-annivesary-expanded.248724/]]></link>
                <description><![CDATA[<article>
<blockquote class="messageText SelectQuoteContainer ugc baseHtml">
Hello, can someone upload the fixed version of Mariah's Rainbow 25th Anniversary Edition album in FLAC or ALAC (Quobuz or iTunes sourced)? I read here in Discogs review that some tracks are now fixed. Thank you<br>
<br>
<a href="https://www.discogs.com/release/30950128-Mariah-Carey-Rainbow-25th-Anniversary-Expanded-Edition" target="_blank" class="externalLink" rel="nofollow">https://www.discogs.com/release/30950128-Mariah-Carey-Rainbow-25th-Anniversary-Expanded-Edition</a>
<div class="messageTextEndMarker">&nbsp;</div>
</blockquote>
</article>]]></description>
                <author><![CDATA[oldsoulx97]]></author>
                </item>

                
                <item>
                <title><![CDATA[【Requests】[REQ VID] - Madonna: The Celebration Tour In Rio]]></title>
                <link><![CDATA[https://sharemania.us/threads/madonna-the-celebration-tour-in-rio.248725/]]></link>
                <description><![CDATA[<article>
<blockquote class="messageText SelectQuoteContainer ugc baseHtml">
Hello everyone. Please make someone DVD Madonna: The Celebration Tour in Rio with chapters and menu. Thank you very much <img src="styles/default/xenforo/clear.png" class="mceSmilieSprite mceSmilie56" alt=":innocent:" title="Innocent    :innocent:"><img src="styles/default/xenforo/clear.png" class="mceSmilieSprite mceSmilie56" alt=":innocent:" title="Innocent    :innocent:"><img src="styles/default/xenforo/clear.png" class="mceSmilieSprite mceSmilie56" alt=":innocent:" title="Innocent    :innocent:">
<div class="messageTextEndMarker">&nbsp;</div>
</blockquote>
</article>]]></description>
                <author><![CDATA[thom@s1990]]></author>
                </item>

                
                <item>
                <title><![CDATA[【Requests】[REQ AUD] - HAS ANYBODY GOT Pitch Perfect Trilogy Soundtracks (FLAC)]]></title>
                <link><![CDATA[https://sharemania.us/threads/has-anybody-got-pitch-perfect-trilogy-soundtracks-flac.248727/]]></link>
                <description><![CDATA[<article>
<blockquote class="messageText SelectQuoteContainer ugc baseHtml">
IF SOME ONE HAS <b>Pitch Perfect Trilogy Soundtracks (FLAC) PLEASE UPLOAD TO MEGA</b>
<div class="messageTextEndMarker">&nbsp;</div>
</blockquote>
</article>]]></description>
                <author><![CDATA[applebee]]></author>
                </item>

                
                <item>
                <title><![CDATA[【Apple Music】WEB-RiP - Pitbull, Lil Jon - JUMPIN (1080p)]]></title>
                <link><![CDATA[https://sharemania.us/threads/pitbull-lil-jon-jumpin-1080p.248728/]]></link>
                <description><![CDATA[<article>
<blockquote class="messageText SelectQuoteContainer ugc baseHtml">
<img src="https://i.postimg.cc/Qt9WF9sB/Pitbull-Lil-Jon-JUMPIN-mp4.jpg" class="bbCodeImage LbImage" alt="[​IMG]" data-url="https://i.postimg.cc/Qt9WF9sB/Pitbull-Lil-Jon-JUMPIN-mp4.jpg" style=""><br>
<br>
<div class="bbCodeBlock bbCodeCode">
<div class="type">Code:</div>
<pre>General
Complete name                  : G:\Новая папка\Pitbull, Lil Jon - JUMPIN.mp4
Format                         : MPEG-4
Format profile                 : Base Media
Codec ID                       : isom (isom/iso2/avc1/mp41)
File size                      : 206 MiB
Duration                       : 2 min 50 s
Overall bit rate               : 10.1 Mb/s
Frame rate                     : 23.976 FPS
Movie name                     : JUMPIN
Performer                      : Pitbull
Genre                          : Pop
ContentType                    : Music Video
Recorded date                  : 2023-05-09 07:00:00 UTC
Writing application            : Lavf56.30.100
Copyright                      : ℗ 2023 Mr. 305 Records

Video
ID                             : 1
Format                         : AVC
Format/Info                    : Advanced Video Codec
Format profile                 : High@L4
Format settings                : CABAC / 4 Ref Frames
Format settings, CABAC         : Yes
Format settings, Reference fra : 4 frames
Format settings, Slice count   : 8 slices per frame
Codec ID                       : avc1
Codec ID/Info                  : Advanced Video Coding
Duration                       : 2 min 50 s
Bit rate                       : 9 870 kb/s
Width                          : 1 920 pixels
Height                         : 1 080 pixels
Display aspect ratio           : 16:9
Frame rate mode                : Constant
Frame rate                     : 23.976 (24000/1001) FPS
Color space                    : YUV
Chroma subsampling             : 4:2:0
Bit depth                      : 8 bits
Scan type                      : Progressive
Bits/(Pixel*Frame)             : 0.199
Stream size                    : 201 MiB (97%)
Color range                    : Limited
Color primaries                : BT.709
Transfer characteristics       : BT.709
Matrix coefficients            : BT.709
Codec configuration box        : avcC

Audio
ID                             : 2
Format                         : AAC LC
Format/Info                    : Advanced Audio Codec Low Complexity
Codec ID                       : mp4a-40-2
Duration                       : 2 min 50 s
Duration_LastFrame             : -2 ms
Bit rate mode                  : Constant
Bit rate                       : 259 kb/s
Channel(s)                     : 2 channels
Channel layout                 : L R
Sampling rate                  : 48.0 kHz
Frame rate                     : 46.875 FPS (1024 SPF)
Compression mode               : Lossy
Stream size                    : 5.26 MiB (3%)
Default                        : Yes
Alternate group                : 1

</pre>
</div>
<div class="bbCodeBlock bbCodeVfcHH HiddenContent">
<div class="attribution type">Hidden Content:</div>
<blockquote>You must either reply or click 'Like' to see the hidden information contained here.</blockquote>
</div>
<div class="messageTextEndMarker">&nbsp;</div>
</blockquote>
</article>]]></description>
                <author><![CDATA[vitalya3]]></author>
                </item>

                
                <item>
                <title><![CDATA[【Apple Music】WEB-RiP - Viki Gabor - Daj mi znak (1080p)]]></title>
                <link><![CDATA[https://sharemania.us/threads/viki-gabor-daj-mi-znak-1080p.248721/]]></link>
                <description><![CDATA[<article>
<blockquote class="messageText SelectQuoteContainer ugc baseHtml">
<img src="https://i.postimg.cc/6qHQ5MZd/Viki-Gabor-Daj-mi-znak-mp4.jpg" class="bbCodeImage LbImage" alt="[​IMG]" data-url="https://i.postimg.cc/6qHQ5MZd/Viki-Gabor-Daj-mi-znak-mp4.jpg" style=""> <br>
<br>
<div class="bbCodeBlock bbCodeCode">
<div class="type">Code:</div>
<pre>General
Complete name                  : G:\Новая папка\Viki Gabor - Daj mi znak.mp4
Format                         : MPEG-4
Format profile                 : Base Media
Codec ID                       : isom (isom/iso2/avc1/mp41)
File size                      : 173 MiB
Duration                       : 2 min 21 s
Overall bit rate               : 10.2 Mb/s
Frame rate                     : 25.000 FPS
Movie name                     : Daj mi znak (Official Video)
Performer                      : Viki Gabor
Genre                          : Pop
ContentType                    : Music Video
Recorded date                  : 2024-04-19 07:00:00 UTC
Writing application            : Lavf56.30.100
Copyright                      : ℗ (C) 2024 Sony Music Entertainment Poland Sp. z o.o.

Video
ID                             : 1
Format                         : AVC
Format/Info                    : Advanced Video Codec
Format profile                 : High@L4
Format settings                : CABAC / 4 Ref Frames
Format settings, CABAC         : Yes
Format settings, Reference fra : 4 frames
Format settings, Slice count   : 8 slices per frame
Codec ID                       : avc1
Codec ID/Info                  : Advanced Video Coding
Duration                       : 2 min 21 s
Bit rate                       : 9 952 kb/s
Width                          : 1 920 pixels
Height                         : 1 012 pixels
Display aspect ratio           : 1.897
Frame rate mode                : Constant
Frame rate                     : 25.000 FPS
Color space                    : YUV
Chroma subsampling             : 4:2:0
Bit depth                      : 8 bits
Scan type                      : Progressive
Bits/(Pixel*Frame)             : 0.205
Stream size                    : 168 MiB (97%)
Color range                    : Limited
Color primaries                : BT.709
Transfer characteristics       : BT.709
Matrix coefficients            : BT.709
Codec configuration box        : avcC

Audio
ID                             : 2
Format                         : AAC LC
Format/Info                    : Advanced Audio Codec Low Complexity
Codec ID                       : mp4a-40-2
Duration                       : 2 min 21 s
Duration_LastFrame             : -7 ms
Bit rate mode                  : Constant
Bit rate                       : 265 kb/s
Channel(s)                     : 2 channels
Channel layout                 : L R
Sampling rate                  : 48.0 kHz
Frame rate                     : 46.875 FPS (1024 SPF)
Compression mode               : Lossy
Stream size                    : 4.53 MiB (3%)
Default                        : Yes
Alternate group                : 1

</pre>
</div>
<div class="bbCodeBlock bbCodeVfcHH HiddenContent">
<div class="attribution type">Hidden Content:</div>
<blockquote>You must either reply or click 'Like' to see the hidden information contained here.</blockquote>
</div>
<div class="messageTextEndMarker">&nbsp;</div>
</blockquote>
</article>]]></description>
                <author><![CDATA[vitalya3]]></author>
                </item>

                
                <item>
                <title><![CDATA[【Apple Music】WEB-RiP - Léa Zelia, Edward Maya &amp; Adryano  -  Plus L'Time (Stereo Love) (1080p)]]></title>
                <link><![CDATA[https://sharemania.us/threads/l%C3%A9a-zelia-edward-maya-adryano-plus-ltime-stereo-love-1080p.248726/]]></link>
                <description><![CDATA[<article>
<blockquote class="messageText SelectQuoteContainer ugc baseHtml">
<img src="https://i.postimg.cc/CLMKRnwc/L-a-Zelia-Edward-Maya-Adryano-Plus-L-Time-Stereo-Love-mp4.jpg" class="bbCodeImage LbImage" alt="[​IMG]" data-url="https://i.postimg.cc/CLMKRnwc/L-a-Zelia-Edward-Maya-Adryano-Plus-L-Time-Stereo-Love-mp4.jpg" style=""><br>
<br>
<br>
<div class="bbCodeBlock bbCodeCode">
<div class="type">Code:</div>
<pre>General
Complete name                  : G:\Новая папка\Léa Zelia, Edward Maya &amp; Adryano  -  Plus L'Time (Stereo Love).mp4
Format                         : MPEG-4
Format profile                 : Base Media
Codec ID                       : isom (isom/iso2/avc1/mp41)
File size                      : 143 MiB
Duration                       : 2 min 56 s
Overall bit rate               : 6 774 kb/s
Frame rate                     : 25.000 FPS
Movie name                     : Plus L'Time (Stereo Love)
Performer                      : Léa Zelia, Edward Maya &amp; Adryano
Genre                          : French Pop
ContentType                    : Music Video
Recorded date                  : 2024-06-14 07:00:00 UTC
Writing application            : Lavf56.30.100
Copyright                      : ℗ Label Parlophone, © 2024 Warner Music France - Explay Music

Video
ID                             : 1
Format                         : AVC
Format/Info                    : Advanced Video Codec
Format profile                 : High@L4
Format settings                : CABAC / 4 Ref Frames
Format settings, CABAC         : Yes
Format settings, Reference fra : 4 frames
Format settings, Slice count   : 8 slices per frame
Codec ID                       : avc1
Codec ID/Info                  : Advanced Video Coding
Duration                       : 2 min 56 s
Bit rate                       : 6 515 kb/s
Width                          : 1 920 pixels
Height                         : 948 pixels
Display aspect ratio           : 2.025
Frame rate mode                : Constant
Frame rate                     : 25.000 FPS
Color space                    : YUV
Chroma subsampling             : 4:2:0
Bit depth                      : 8 bits
Scan type                      : Progressive
Bits/(Pixel*Frame)             : 0.143
Stream size                    : 137 MiB (96%)
Color range                    : Limited
Color primaries                : BT.709
Transfer characteristics       : BT.709
Matrix coefficients            : BT.709
Codec configuration box        : avcC

Audio
ID                             : 2
Format                         : AAC LC
Format/Info                    : Advanced Audio Codec Low Complexity
Codec ID                       : mp4a-40-2
Duration                       : 2 min 56 s
Duration_LastFrame             : -12 ms
Bit rate mode                  : Constant
Bit rate                       : 255 kb/s
Channel(s)                     : 2 channels
Channel layout                 : L R
Sampling rate                  : 48.0 kHz
Frame rate                     : 46.875 FPS (1024 SPF)
Compression mode               : Lossy
Stream size                    : 5.38 MiB (4%)
Default                        : Yes
Alternate group                : 1

</pre>
</div>
<div class="bbCodeBlock bbCodeVfcHH HiddenContent">
<div class="attribution type">Hidden Content:</div>
<blockquote>You must either reply or click 'Like' to see the hidden information contained here.</blockquote>
</div>
<div class="messageTextEndMarker">&nbsp;</div>
</blockquote>
</article>]]></description>
                <author><![CDATA[vitalya3]]></author>
                </item>

                
                <item>
                <title><![CDATA[【Apple Music】WEB-RiP - VIZE, Imanbek &amp; Dieter Bohlen - Brother Louie (feat. Leony) (1080p)]]></title>
                <link><![CDATA[https://sharemania.us/threads/vize-imanbek-dieter-bohlen-brother-louie-feat-leony-1080p.248722/]]></link>
                <description><![CDATA[<article>
<blockquote class="messageText SelectQuoteContainer ugc baseHtml">
<img src="https://i.postimg.cc/zXgnPWYx/VIZE-Imanbek-Dieter-Bohlen-Brother-Louie-feat-Leony-mp4.jpg" class="bbCodeImage LbImage" alt="[​IMG]" data-url="https://i.postimg.cc/zXgnPWYx/VIZE-Imanbek-Dieter-Bohlen-Brother-Louie-feat-Leony-mp4.jpg" style=""><br>
<br>
<div class="bbCodeBlock bbCodeCode">
<div class="type">Code:</div>
<pre>General
Complete name                  : G:\Новая папка\VIZE, Imanbek &amp; Dieter Bohlen - Brother Louie (feat. Leony).mp4
Format                         : MPEG-4
Format profile                 : Base Media
Codec ID                       : isom (isom/iso2/avc1/mp41)
File size                      : 151 MiB
Duration                       : 3 min 2 s
Overall bit rate               : 6 921 kb/s
Frame rate                     : 25.000 FPS
Movie name                     : Brother Louie (feat. Leony)
Performer                      : VIZE, Imanbek &amp; Dieter Bohlen
Genre                          : Dance
ContentType                    : Music Video
Recorded date                  : 2020-07-10 07:00:00 UTC
Writing application            : Lavf56.30.100
Copyright                      : ℗ 2020 Kontor Records GmbH / Heaven Shall Dance

Video
ID                             : 1
Format                         : AVC
Format/Info                    : Advanced Video Codec
Format profile                 : High@L4
Format settings                : CABAC / 5 Ref Frames
Format settings, CABAC         : Yes
Format settings, Reference fra : 5 frames
Format settings, Slice count   : 8 slices per frame
Codec ID                       : avc1
Codec ID/Info                  : Advanced Video Coding
Duration                       : 3 min 2 s
Bit rate                       : 6 669 kb/s
Width                          : 1 920 pixels
Height                         : 802 pixels
Display aspect ratio           : 2.39:1
Frame rate mode                : Constant
Frame rate                     : 25.000 FPS
Color space                    : YUV
Chroma subsampling             : 4:2:0
Bit depth                      : 8 bits
Scan type                      : Progressive
Bits/(Pixel*Frame)             : 0.173
Stream size                    : 145 MiB (96%)
Color range                    : Limited
Color primaries                : BT.709
Transfer characteristics       : BT.709
Matrix coefficients            : BT.709
Codec configuration box        : avcC

Audio
ID                             : 2
Format                         : AAC LC
Format/Info                    : Advanced Audio Codec Low Complexity
Codec ID                       : mp4a-40-2
Duration                       : 3 min 2 s
Duration_LastFrame             : -1 ms
Bit rate mode                  : Constant
Bit rate                       : 248 kb/s
Channel(s)                     : 2 channels
Channel layout                 : L R
Sampling rate                  : 48.0 kHz
Frame rate                     : 46.875 FPS (1024 SPF)
Compression mode               : Lossy
Stream size                    : 5.40 MiB (4%)
Default                        : Yes
Alternate group                : 1

</pre>
</div>
<div class="bbCodeBlock bbCodeVfcHH HiddenContent">
<div class="attribution type">Hidden Content:</div>
<blockquote>You must either reply or click 'Like' to see the hidden information contained here.</blockquote>
</div>
<div class="messageTextEndMarker">&nbsp;</div>
</blockquote>
</article>]]></description>
                <author><![CDATA[vitalya3]]></author>
                </item>

                
                <item>
                <title><![CDATA[【Apple Music】WEB-RiP - Leony - No More Second Chances (1080p)]]></title>
                <link><![CDATA[https://sharemania.us/threads/leony-no-more-second-chances-1080p.248723/]]></link>
                <description><![CDATA[<article>
<blockquote class="messageText SelectQuoteContainer ugc baseHtml">
<img src="https://i.postimg.cc/x8St6PFV/Leony-No-More-Second-Chances-mp4.jpg" class="bbCodeImage LbImage" alt="[​IMG]" data-url="https://i.postimg.cc/x8St6PFV/Leony-No-More-Second-Chances-mp4.jpg" style=""><br>
<br>
<div class="bbCodeBlock bbCodeCode">
<div class="type">Code:</div>
<pre>General
Complete name                  : G:\Новая папка\Leony - No More Second Chances.mp4
Format                         : MPEG-4
Format profile                 : Base Media
Codec ID                       : isom (isom/iso2/avc1/mp41)
File size                      : 130 MiB
Duration                       : 2 min 40 s
Overall bit rate               : 6 809 kb/s
Frame rate                     : 25.000 FPS
Movie name                     : No More Second Chances
Performer                      : Leony
Genre                          : Pop
ContentType                    : Music Video
Recorded date                  : 2021-05-28 07:00:00 UTC
Writing application            : Lavf56.30.100
Copyright                      : ℗ 2021 Kontor Records GmbH / Crash Your Sound

Video
ID                             : 1
Format                         : AVC
Format/Info                    : Advanced Video Codec
Format profile                 : High@L4
Format settings                : CABAC / 5 Ref Frames
Format settings, CABAC         : Yes
Format settings, Reference fra : 5 frames
Format settings, Slice count   : 8 slices per frame
Codec ID                       : avc1
Codec ID/Info                  : Advanced Video Coding
Duration                       : 2 min 40 s
Bit rate                       : 6 549 kb/s
Width                          : 1 918 pixels
Height                         : 816 pixels
Display aspect ratio           : 2.35:1
Frame rate mode                : Constant
Frame rate                     : 25.000 FPS
Color space                    : YUV
Chroma subsampling             : 4:2:0
Bit depth                      : 8 bits
Scan type                      : Progressive
Bits/(Pixel*Frame)             : 0.167
Stream size                    : 125 MiB (96%)
Color range                    : Limited
Color primaries                : BT.709
Transfer characteristics       : BT.709
Matrix coefficients            : BT.709
Codec configuration box        : avcC

Audio
ID                             : 2
Format                         : AAC LC
Format/Info                    : Advanced Audio Codec Low Complexity
Codec ID                       : mp4a-40-2
Duration                       : 2 min 40 s
Duration_LastFrame             : -20 ms
Bit rate mode                  : Constant
Bit rate                       : 256 kb/s
Channel(s)                     : 2 channels
Channel layout                 : L R
Sampling rate                  : 48.0 kHz
Frame rate                     : 46.875 FPS (1024 SPF)
Compression mode               : Lossy
Stream size                    : 4.88 MiB (4%)
Default                        : Yes
Alternate group                : 1

</pre>
</div>
<div class="bbCodeBlock bbCodeVfcHH HiddenContent">
<div class="attribution type">Hidden Content:</div>
<blockquote>You must either reply or click 'Like' to see the hidden information contained here.</blockquote>
</div>
<div class="messageTextEndMarker">&nbsp;</div>
</blockquote>
</article>]]></description>
                <author><![CDATA[vitalya3]]></author>
                </item>

                </channel></rss>